SeanBold.ufo
<glyph name="exclam" format="1">
  <advance width="429"/>
  <unicode hex="0021"/>
  <outline>
    <contour>
      <point x="194" y="229" type="line"/>
      <point x="184" y="722" type="line"/>
      <point x="303" y="722" type="line"/>
      <point x="296" y="229" type="line"/>
    </contour>
    <contour>
      <point x="185" y="142" type="line"/>
      <point x="303" y="142" type="line"/>
      <point x="303" y="0" type="line"/>
      <point x="185" y="0" type="line"/>
    </contour>
  </outline>
</glyph>
<glyph name="quotedbl" format="1">
  <advance width="462"/>
  <unicode hex="0022"/>
  <outline>
    <contour>
      <point x="256" y="658" type="line"/>
      <point x="290" y="846" type="line"/>
      <point x="400" y="846" type="line"/>
      <point x="358" y="658" type="line"/>
    </contour>
    <contour>
      <point x="78" y="658" type="line"/>
      <point x="112" y="846" type="line"/>
      <point x="223" y="846" type="line"/>
      <point x="180" y="658" type="line"/>
    </contour>
  </outline>
</glyph>
<glyph name="numbersign" format="1">
  <advance width="670"/>
  <unicode hex="0023"/>
  <outline>
    <contour>
      <point x="62" y="223" type="line"/>
      <point x="141" y="226" type="line"/>
      <point x="82" y="30" type="line"/>
      <point x="156" y="30" type="line"/>
      <point x="216" y="229" type="line"/>
      <point x="352" y="233" type="line"/>
      <point x="292" y="38" type="line"/>
      <point x="367" y="38" type="line"/>
      <point x="427" y="236" type="line"/>
      <point x="505" y="239" type="line"/>
      <point x="519" y="312" type="line"/>
      <point x="449" y="309" type="line"/>
      <point x="493" y="453" type="line"/>
      <point x="574" y="456" type="line"/>
      <point x="585" y="530" type="line"/>
      <point x="516" y="527" type="line"/>
      <point x="574" y="720" type="line"/>
      <point x="500" y="720" type="line"/>
      <point x="440" y="524" type="line"/>
      <point x="304" y="519" type="line"/>
      <point x="360" y="706" type="line"/>
      <point x="285" y="706" type="line"/>
      <point x="228" y="516" type="line"/>
      <point x="145" y="513" type="line"/>
      <point x="128" y="441" type="line"/>
      <point x="206" y="444" type="line"/>
      <point x="163" y="299" type="line"/>
      <point x="80" y="296" type="line"/>
    </contour>
    <contour>
      <point x="282" y="446" type="line"/>
      <point x="418" y="451" type="line"/>
      <point x="374" y="307" type="line"/>
      <point x="238" y="302" type="line"/>
    </contour>
  </outline>
</glyph>
<glyph name="quotesingle" format="1">
  <advance width="283"/>
  <unicode hex="0027"/>
  <outline>
    <contour>
      <point x="82" y="658" type="line"/>
      <point x="120" y="846" type="line"/>
      <point x="223" y="846" type="line"/>
      <point x="184" y="658" type="line"/>
    </contour>
  </outline>
</glyph>
<glyph name="parenleft" format="1">
  <advance width="468"/>
  <unicode hex="0028"/>
  <outline>
    <contour>
      <point x="386" y="838" type="curve"/>
      <point x="304" y="901" type="line"/>
      <point x="149" y="747"/>
      <point x="61" y="542"/>
      <point x="61" y="317" type="curve" smooth="yes"/>
      <point x="61" y="96"/>
      <point x="149" y="-117"/>
      <point x="307" y="-274" type="curve"/>
      <point x="379" y="-200" type="line"/>
      <point x="243" y="-61"/>
      <point x="168" y="126"/>
      <point x="168" y="318" type="curve" smooth="yes"/>
      <point x="168" y="526"/>
      <point x="249" y="702"/>
    </contour>
  </outline>
</glyph>
<glyph name="parenright" format="1">
  <advance width="472"/>
  <unicode hex="0029"/>
  <outline>
    <contour>
      <point x="289" y="320" type="curve" smooth="yes"/>
      <point x="289" y="527"/>
      <point x="211" y="712"/>
      <point x="71" y="853" type="curve"/>
      <point x="151" y="935" type="line"/>
      <point x="312" y="775"/>
      <point x="406" y="567"/>
      <point x="406" y="322" type="curve" smooth="yes"/>
      <point x="406" y="91"/>
      <point x="315" y="-131"/>
      <point x="151" y="-294" type="curve"/>
      <point x="61" y="-225" type="line"/>
      <point x="207" y="-81"/>
      <point x="289" y="116"/>
    </contour>
  </outline>
</glyph>
<glyph name="plus" format="1">
  <advance width="761"/>
  <unicode hex="002B"/>
  <outline>
    <contour>
      <point x="106" y="264" type="line"/>
      <point x="339" y="264" type="line"/>
      <point x="339" y="18" type="line"/>
      <point x="439" y="18" type="line"/>
      <point x="439" y="264" type="line"/>
      <point x="663" y="264" type="line"/>
      <point x="663" y="360" type="line"/>
      <point x="440" y="360" type="line"/>
      <point x="440" y="571" type="line"/>
      <point x="340" y="571" type="line"/>
      <point x="340" y="361" type="line"/>
      <point x="106" y="361" type="line"/>
    </contour>
  </outline>
</glyph>
<glyph name="comma" format="1">
  <advance width="349"/>
  <unicode hex="002C"/>
  <outline>
    <contour>
      <point x="59" y="-114" type="line"/>
      <point x="140" y="-114" type="line"/>
      <point x="268" y="90" type="line"/>
      <point x="143" y="90" type="line"/>
    </contour>
  </outline>
</glyph>
<glyph name="hyphen" format="1">
  <advance width="414"/>
  <unicode hex="002D"/>
  <outline>
    <contour>
      <point x="74" y="323" type="line"/>
      <point x="351" y="323" type="line"/>
      <point x="351" y="221" type="line"/>
      <point x="74" y="221" type="line"/>
    </contour>
  </outline>
</glyph>
<glyph name="period" format="1">
  <advance width="354"/>
  <unicode hex="002E"/>
  <outline>
    <contour>
      <point x="119" y="167" type="line"/>
      <point x="246" y="167" type="line"/>
      <point x="246" y="0" type="line"/>
      <point x="119" y="0" type="line"/>
    </contour>
  </outline>
</glyph>
<glyph name="slash" format="1">
  <advance width="585"/>
  <unicode hex="002F"/>
  <outline>
    <contour>
      <point x="159" y="-68" type="line"/>
      <point x="40" y="-68" type="line"/>
      <point x="446" y="844" type="line"/>
      <point x="565" y="844" type="line"/>
    </contour>
  </outline>
</glyph>
<glyph name="zero" format="1">
  <advance width="586"/>
  <unicode hex="0030"/>
  <outline>
    <contour>
      <point x="159" y="245" type="curve" smooth="yes"/>
      <point x="159" y="336"/>
      <point x="217" y="417"/>
      <point x="300" y="417" type="curve" smooth="yes"/>
      <point x="384" y="417"/>
      <point x="436" y="337"/>
      <point x="436" y="251" type="curve" smooth="yes"/>
      <point x="436" y="157"/>
      <point x="375" y="76"/>
      <point x="296" y="76" type="curve" smooth="yes"/>
      <point x="212" y="76"/>
      <point x="159" y="156"/>
    </contour>
    <contour>
      <point x="296" y="-19" type="curve" smooth="yes"/>
      <point x="435" y="-19"/>
      <point x="545" y="97"/>
      <point x="545" y="247" type="curve" smooth="yes"/>
      <point x="545" y="390"/>
      <point x="438" y="512"/>
      <point x="297" y="512" type="curve" smooth="yes"/>
      <point x="155" y="512"/>
      <point x="49" y="390"/>
      <point x="49" y="248" type="curve" smooth="yes"/>
      <point x="49" y="99"/>
      <point x="159" y="-19"/>
    </contour>
  </outline>
</glyph>
<glyph name="one" format="1">
  <advance width="345"/>
  <unicode hex="0031"/>
  <outline>
    <contour>
      <point x="173" y="500" type="line"/>
      <point x="13" y="366" type="line"/>
      <point x="79" y="295" type="line"/>
      <point x="173" y="374" type="line"/>
      <point x="174" y="0" type="line"/>
      <point x="284" y="0" type="line"/>
      <point x="283" y="500" type="line"/>
    </contour>
  </outline>
</glyph>
<glyph name="two" format="1">
  <advance width="471"/>
  <unicode hex="0032"/>
  <outline>
    <contour>
      <point x="307" y="330" type="curve" smooth="yes"/>
      <point x="307" y="381"/>
      <point x="271" y="433"/>
      <point x="207" y="433" type="curve" smooth="yes"/>
      <point x="163" y="433"/>
      <point x="125" y="401"/>
      <point x="93" y="358" type="curve"/>
      <point x="23" y="420" type="line"/>
      <point x="77" y="491"/>
      <point x="143" y="539"/>
      <point x="220" y="539" type="curve" smooth="yes"/>
      <point x="342" y="539"/>
      <point x="414" y="449"/>
      <point x="414" y="349" type="curve" smooth="yes"/>
      <point x="414" y="234"/>
      <point x="353" y="152"/>
      <point x="278" y="111" type="curve"/>
      <point x="455" y="111" type="line"/>
      <point x="455" y="9" type="line"/>
      <point x="30" y="9" type="line"/>
      <point x="30" y="111" type="line"/>
      <point x="144" y="111"/>
      <point x="236" y="153"/>
      <point x="287" y="254" type="curve" smooth="yes"/>
      <point x="300" y="280"/>
      <point x="307" y="306"/>
    </contour>
  </outline>
</glyph>
<glyph name="three" format="1">
  <advance width="570"/>
  <unicode hex="0033"/>
  <outline>
    <contour>
      <point x="357" y="311" type="curve" smooth="yes"/>
      <point x="357" y="385"/>
      <point x="292" y="427"/>
      <point x="208" y="427" type="curve" smooth="yes"/>
      <point x="158" y="427"/>
      <point x="115" y="408"/>
      <point x="78" y="368" type="curve"/>
      <point x="34" y="442" type="line"/>
      <point x="90" y="501"/>
      <point x="155" y="530"/>
      <point x="229" y="530" type="curve" smooth="yes"/>
      <point x="371" y="530"/>
      <point x="472" y="454"/>
      <point x="472" y="321" type="curve" smooth="yes"/>
      <point x="472" y="247"/>
      <point x="438" y="188"/>
      <point x="384" y="148" type="curve"/>
      <point x="445" y="122"/>
      <point x="508" y="56"/>
      <point x="508" y="-34" type="curve" smooth="yes"/>
      <point x="508" y="-105"/>
      <point x="464" y="-170"/>
      <point x="390" y="-212" type="curve" smooth="yes"/>
      <point x="335" y="-243"/>
      <point x="274" y="-258"/>
      <point x="213" y="-258" type="curve" smooth="yes"/>
      <point x="162" y="-258"/>
      <point x="111" y="-248"/>
      <point x="64" y="-226" type="curve"/>
      <point x="105" y="-132" type="line"/>
      <point x="137" y="-150"/>
      <point x="173" y="-159"/>
      <point x="208" y="-159" type="curve" smooth="yes"/>
      <point x="283" y="-159"/>
      <point x="386" y="-109"/>
      <point x="386" y="-31" type="curve" smooth="yes"/>
      <point x="386" y="-22"/>
      <point x="384" y="-11"/>
      <point x="381" y="-1" type="curve" smooth="yes"/>
      <point x="356" y="79"/>
      <point x="276" y="83"/>
      <point x="187" y="83" type="curve" smooth="yes"/>
      <point x="157" y="83" type="line"/>
      <point x="156" y="83" type="line"/>
      <point x="155" y="177" type="line"/>
      <point x="264" y="177"/>
      <point x="357" y="215"/>
    </contour>
  </outline>
</glyph>
<glyph name="four" format="1">
  <advance width="622"/>
  <unicode hex="0034"/>
  <outline>
    <contour>
      <point x="141" y="126" type="line"/>
      <point x="359" y="404" type="line"/>
      <point x="357" y="126" type="line"/>
    </contour>
    <contour>
      <point x="30" y="126" type="line"/>
      <point x="30" y="37" type="line"/>
      <point x="357" y="37" type="line"/>
      <point x="356" y="-222" type="line"/>
      <point x="466" y="-222" type="line"/>
      <point x="467" y="37" type="line"/>
      <point x="600" y="37" type="line"/>
      <point x="600" y="126" type="line"/>
      <point x="468" y="126" type="line"/>
      <point x="470" y="527" type="line"/>
      <point x="359" y="527" type="line"/>
    </contour>
  </outline>
</glyph>
<glyph name="five" format="1">
  <advance width="529"/>
  <unicode hex="0035"/>
  <outline>
    <contour>
      <point x="228" y="317" type="curve" smooth="yes"/>
      <point x="215" y="317"/>
      <point x="203" y="317"/>
      <point x="190" y="315" type="curve"/>
      <point x="191" y="445" type="line"/>
      <point x="437" y="445" type="line"/>
      <point x="437" y="534" type="line"/>
      <point x="88" y="534" type="line"/>
      <point x="86" y="280" type="line"/>
      <point x="86" y="184" type="line"/>
      <point x="125" y="212"/>
      <point x="166" y="225"/>
      <point x="204" y="225" type="curve" smooth="yes"/>
      <point x="296" y="225"/>
      <point x="375" y="150"/>
      <point x="375" y="30" type="curve" smooth="yes"/>
      <point x="375" y="-74"/>
      <point x="304" y="-144"/>
      <point x="215" y="-144" type="curve" smooth="yes"/>
      <point x="183" y="-144"/>
      <point x="148" y="-135"/>
      <point x="114" y="-115" type="curve"/>
      <point x="68" y="-199" type="line"/>
      <point x="123" y="-231"/>
      <point x="179" y="-245"/>
      <point x="231" y="-245" type="curve" smooth="yes"/>
      <point x="373" y="-245"/>
      <point x="485" y="-136"/>
      <point x="485" y="23" type="curve" smooth="yes"/>
      <point x="485" y="202"/>
      <point x="367" y="317"/>
    </contour>
  </outline>
</glyph>
<glyph name="six" format="1">
  <advance width="602"/>
  <unicode hex="0036"/>
  <outline>
    <contour>
      <point x="503" y="748" type="curve"/>
      <point x="545" y="646" type="line"/>
      <point x="455" y="611"/>
      <point x="371" y="560"/>
      <point x="297" y="497" type="curve" smooth="yes"/>
      <point x="257" y="464"/>
      <point x="221" y="425"/>
      <point x="197" y="382" type="curve"/>
      <point x="238" y="406"/>
      <point x="285" y="419"/>
      <point x="333" y="419" type="curve" smooth="yes"/>
      <point x="459" y="419"/>
      <point x="561" y="342"/>
      <point x="561" y="214" type="curve" smooth="yes"/>
      <point x="561" y="92"/>
      <point x="451" y="-11"/>
      <point x="315" y="-11" type="curve" smooth="yes"/>
      <point x="160" y="-11"/>
      <point x="50" y="108"/>
      <point x="50" y="260" type="curve" smooth="yes"/>
      <point x="50" y="363"/>
      <point x="105" y="460"/>
      <point x="177" y="539" type="curve" smooth="yes"/>
      <point x="266" y="636"/>
      <point x="378" y="708"/>
    </contour>
    <contour>
      <point x="433" y="210" type="curve" smooth="yes"/>
      <point x="433" y="276"/>
      <point x="365" y="329"/>
      <point x="284" y="329" type="curve" smooth="yes"/>
      <point x="241" y="329"/>
      <point x="199" y="314"/>
      <point x="165" y="287" type="curve"/>
      <point x="165" y="272" type="line" smooth="yes"/>
      <point x="165" y="176"/>
      <point x="236" y="108"/>
      <point x="316" y="108" type="curve" smooth="yes"/>
      <point x="381" y="108"/>
      <point x="433" y="148"/>
    </contour>
  </outline>
</glyph>
<glyph name="seven" format="1">
  <advance width="582"/>
  <unicode hex="0037"/>
  <outline>
    <contour>
      <point x="90" y="519" type="line"/>
      <point x="532" y="518" type="line"/>
      <point x="532" y="408" type="line"/>
      <point x="203" y="-222" type="line"/>
      <point x="77" y="-222" type="line"/>
      <point x="402" y="408" type="line"/>
      <point x="90" y="408" type="line"/>
    </contour>
  </outline>
</glyph>
<glyph name="eight" format="1">
  <advance width="592"/>
  <unicode hex="0038"/>
  <outline>
    <contour>
      <point x="295" y="591" type="curve" smooth="yes"/>
      <point x="250" y="591"/>
      <point x="204" y="564"/>
      <point x="204" y="512" type="curve" smooth="yes"/>
      <point x="204" y="463"/>
      <point x="255" y="424"/>
      <point x="316" y="393" type="curve"/>
      <point x="363" y="421"/>
      <point x="402" y="457"/>
      <point x="402" y="502" type="curve" smooth="yes"/>
      <point x="402" y="560"/>
      <point x="351" y="591"/>
    </contour>
    <contour>
      <point x="297" y="-42" type="curve" smooth="yes"/>
      <point x="181" y="-42"/>
      <point x="81" y="35"/>
      <point x="81" y="146" type="curve" smooth="yes"/>
      <point x="81" y="227"/>
      <point x="138" y="287"/>
      <point x="209" y="333" type="curve"/>
      <point x="145" y="375"/>
      <point x="96" y="435"/>
      <point x="96" y="509" type="curve" smooth="yes"/>
      <point x="96" y="618"/>
      <point x="197" y="692"/>
      <point x="306" y="692" type="curve" smooth="yes"/>
      <point x="418" y="692"/>
      <point x="517" y="617"/>
      <point x="517" y="511" type="curve" smooth="yes"/>
      <point x="517" y="442"/>
      <point x="473" y="384"/>
      <point x="414" y="344" type="curve"/>
      <point x="478" y="304"/>
      <point x="529" y="246"/>
      <point x="529" y="164" type="curve" smooth="yes"/>
      <point x="529" y="48"/>
      <point x="422" y="-42"/>
    </contour>
    <contour>
      <point x="320" y="56" type="line" smooth="yes"/>
      <point x="373" y="56"/>
      <point x="427" y="89"/>
      <point x="427" y="150" type="curve" smooth="yes"/>
      <point x="427" y="208"/>
      <point x="367" y="250"/>
      <point x="301" y="284" type="curve"/>
      <point x="246" y="254"/>
      <point x="197" y="217"/>
      <point x="197" y="164" type="curve" smooth="yes"/>
      <point x="197" y="102"/>
      <point x="252" y="56"/>
      <point x="318" y="56" type="curve" smooth="yes"/>
    </contour>
  </outline>
</glyph>
<glyph name="nine" format="1">
  <advance width="609"/>
  <unicode hex="0039"/>
  <outline>
    <contour>
      <point x="300" y="528" type="curve" smooth="yes"/>
      <point x="465" y="528"/>
      <point x="555" y="385"/>
      <point x="555" y="240" type="curve" smooth="yes"/>
      <point x="555" y="117"/>
      <point x="492" y="8"/>
      <point x="408" y="-77" type="curve" smooth="yes"/>
      <point x="332" y="-154"/>
      <point x="238" y="-212"/>
      <point x="135" y="-246" type="curve"/>
      <point x="91" y="-136" type="line"/>
      <point x="215" y="-99"/>
      <point x="332" y="-15"/>
      <point x="397" y="94" type="curve"/>
      <point x="364" y="79"/>
      <point x="329" y="72"/>
      <point x="292" y="72" type="curve" smooth="yes"/>
      <point x="161" y="72"/>
      <point x="60" y="159"/>
      <point x="60" y="294" type="curve" smooth="yes"/>
      <point x="60" y="422"/>
      <point x="169" y="528"/>
    </contour>
    <contour>
      <point x="189" y="301" type="curve" smooth="yes"/>
      <point x="189" y="232"/>
      <point x="249" y="174"/>
      <point x="329" y="174" type="curve" smooth="yes"/>
      <point x="371" y="174"/>
      <point x="411" y="192"/>
      <point x="439" y="221" type="curve"/>
      <point x="439" y="233" type="line" smooth="yes"/>
      <point x="439" y="331"/>
      <point x="373" y="407"/>
      <point x="296" y="407" type="curve" smooth="yes"/>
      <point x="232" y="407"/>
      <point x="189" y="360"/>
    </contour>
  </outline>
</glyph>
<glyph name="colon" format="1">
  <advance width="376"/>
  <unicode hex="003A"/>
  <outline>
    <contour>
      <point x="140" y="140" type="line"/>
      <point x="140" y="0" type="line"/>
      <point x="251" y="0" type="line"/>
      <point x="251" y="140" type="line"/>
    </contour>
    <contour>
      <point x="140" y="471" type="line"/>
      <point x="140" y="331" type="line"/>
      <point x="251" y="331" type="line"/>
      <point x="251" y="471" type="line"/>
    </contour>
  </outline>
</glyph>
<glyph name="semicolon" format="1">
  <advance width="349"/>
  <unicode hex="003B"/>
  <outline>
    <contour>
      <point x="143" y="331" type="line"/>
      <point x="254" y="331" type="line"/>
      <point x="254" y="471" type="line"/>
      <point x="143" y="471" type="line"/>
    </contour>
    <contour>
      <point x="51" y="-92" type="line"/>
      <point x="148" y="-92" type="line"/>
      <point x="264" y="90" type="line"/>
      <point x="146" y="90" type="line"/>
    </contour>
  </outline>
</glyph>
<glyph name="less" format="1">
  <advance width="826"/>
  <unicode hex="003C"/>
  <outline>
    <contour>
      <point x="250" y="301" type="line"/>
      <point x="711" y="96" type="line"/>
      <point x="711" y="-23" type="line"/>
      <point x="120" y="241" type="line"/>
      <point x="120" y="359" type="line"/>
      <point x="701" y="629" type="line"/>
      <point x="701" y="510" type="line"/>
    </contour>
  </outline>
</glyph>
<glyph name="equal" format="1">
  <advance width="846"/>
  <unicode hex="003D"/>
  <outline>
    <contour>
      <point x="123" y="268" type="line"/>
      <point x="723" y="268" type="line"/>
      <point x="723" y="166" type="line"/>
      <point x="123" y="166" type="line"/>
    </contour>
    <contour>
      <point x="123" y="491" type="line"/>
      <point x="723" y="491" type="line"/>
      <point x="723" y="389" type="line"/>
      <point x="123" y="389" type="line"/>
    </contour>
  </outline>
</glyph>
<glyph name="greater" format="1">
  <advance width="825"/>
  <unicode hex="003E"/>
  <outline>
    <contour>
      <point x="134" y="-20" type="line"/>
      <point x="719" y="237" type="line"/>
      <point x="719" y="348" type="line"/>
      <point x="121" y="608" type="line"/>
      <point x="121" y="498" type="line"/>
      <point x="592" y="292" type="line"/>
      <point x="134" y="91" type="line"/>
    </contour>
  </outline>
</glyph>
<glyph name="question" format="1">
  <advance width="567"/>
  <unicode hex="003F"/>
  <outline>
    <contour>
      <point x="217" y="403" type="curve"/>
      <point x="217" y="307" type="line"/>
      <point x="216" y="226" type="line"/>
      <point x="327" y="226" type="line"/>
      <point x="328" y="294" type="line"/>
      <point x="426" y="309"/>
      <point x="512" y="389"/>
      <point x="512" y="513" type="curve" smooth="yes"/>
      <point x="512" y="643"/>
      <point x="403" y="749"/>
      <point x="276" y="749" type="curve" smooth="yes"/>
      <point x="247" y="749"/>
      <point x="216" y="743"/>
      <point x="186" y="731" type="curve"/>
      <point x="204" y="637" type="line"/>
      <point x="226" y="650"/>
      <point x="250" y="656"/>
      <point x="273" y="656" type="curve" smooth="yes"/>
      <point x="343" y="656"/>
      <point x="406" y="601"/>
      <point x="407" y="524" type="curve" smooth="yes"/>
      <point x="409" y="447"/>
      <point x="345" y="390"/>
      <point x="275" y="390" type="curve" smooth="yes"/>
      <point x="256" y="390"/>
      <point x="236" y="394"/>
    </contour>
    <contour>
      <point x="334" y="-10" type="line"/>
      <point x="334" y="135" type="line"/>
      <point x="208" y="135" type="line"/>
      <point x="208" y="-10" type="line"/>
    </contour>
  </outline>
</glyph>
<glyph name="at" format="1">
  <advance width="851"/>
  <unicode hex="0040"/>
  <outline>
    <contour>
      <point x="580" y="146" type="curve" smooth="yes"/>
      <point x="580" y="118"/>
      <point x="600" y="95"/>
      <point x="625" y="95" type="curve" smooth="yes"/>
      <point x="667" y="95"/>
      <point x="716" y="154"/>
      <point x="716" y="243" type="curve" smooth="yes"/>
      <point x="716" y="389"/>
      <point x="591" y="501"/>
      <point x="442" y="503" type="curve"/>
      <point x="438" y="503" type="line" smooth="yes"/>
      <point x="276" y="503"/>
      <point x="142" y="374"/>
      <point x="142" y="212" type="curve" smooth="yes"/>
      <point x="142" y="47"/>
      <point x="281" y="-83"/>
      <point x="448" y="-83" type="curve" smooth="yes"/>
      <point x="452" y="-83" type="line"/>
      <point x="530" y="-82"/>
      <point x="604" y="-51"/>
      <point x="659" y="4" type="curve"/>
      <point x="716" y="-59" type="line"/>
      <point x="644" y="-129"/>
      <point x="548" y="-166"/>
      <point x="447" y="-166" type="curve" smooth="yes"/>
      <point x="233" y="-166"/>
      <point x="58" y="-3"/>
      <point x="58" y="206" type="curve" smooth="yes"/>
      <point x="58" y="416"/>
      <point x="233" y="582"/>
      <point x="443" y="582" type="curve" smooth="yes"/>
      <point x="644" y="582"/>
      <point x="801" y="435"/>
      <point x="801" y="250" type="curve" smooth="yes"/>
      <point x="801" y="118"/>
      <point x="711" y="18"/>
      <point x="618" y="18" type="curve" smooth="yes"/>
      <point x="578" y="18"/>
      <point x="538" y="40"/>
      <point x="518" y="66" type="curve"/>
      <point x="488" y="44"/>
      <point x="451" y="33"/>
      <point x="413" y="33" type="curve" smooth="yes"/>
      <point x="307" y="33"/>
      <point x="236" y="112"/>
      <point x="236" y="215" type="curve" smooth="yes"/>
      <point x="236" y="327"/>
      <point x="329" y="420"/>
      <point x="443" y="420" type="curve" smooth="yes"/>
      <point x="530" y="420"/>
      <point x="605" y="367"/>
      <point x="605" y="283" type="curve" smooth="yes"/>
      <point x="605" y="237"/>
      <point x="580" y="195"/>
    </contour>
    <contour>
      <point x="322" y="212" type="curve" smooth="yes"/>
      <point x="322" y="150"/>
      <point x="364" y="101"/>
      <point x="418" y="101" type="curve" smooth="yes"/>
      <point x="420" y="101" type="line"/>
      <point x="452" y="102"/>
      <point x="480" y="119"/>
      <point x="494" y="146" type="curve"/>
      <point x="497" y="190"/>
      <point x="518" y="279"/>
      <point x="518" y="296" type="curve" smooth="yes"/>
      <point x="518" y="325"/>
      <point x="466" y="339"/>
      <point x="444" y="339" type="curve" smooth="yes"/>
      <point x="375" y="338"/>
      <point x="322" y="281"/>
    </contour>
  </outline>
</glyph>
<glyph name="A" format="1">
  <advance width="765"/>
  <unicode hex="0041"/>
  <outline>
    <contour>
      <point x="50" y="0" type="line"/>
      <point x="161" y="0" type="line"/>
      <point x="240" y="190" type="line"/>
      <point x="538" y="190" type="line"/>
      <point x="597" y="1" type="line"/>
      <point x="707" y="1" type="line"/>
      <point x="470" y="721" type="line"/>
      <point x="364" y="721" type="line"/>
    </contour>
    <contour>
      <point x="510" y="281" type="line"/>
      <point x="278" y="282" type="line"/>
      <point x="411" y="601" type="line"/>
    </contour>
  </outline>
</glyph>
<glyph name="B" format="1">
  <advance width="648"/>
  <unicode hex="0042"/>
  <outline>
    <contour>
      <point x="284" y="722" type="line" smooth="yes"/>
      <point x="421" y="722"/>
      <point x="547" y="681"/>
      <point x="547" y="541" type="curve" smooth="yes"/>
      <point x="547" y="479"/>
      <point x="514" y="432"/>
      <point x="462" y="401" type="curve"/>
      <point x="539" y="367"/>
      <point x="590" y="306"/>
      <point x="590" y="216" type="curve" smooth="yes"/>
      <point x="589" y="68"/>
      <point x="453" y="0"/>
      <point x="289" y="0" type="curve" smooth="yes"/>
      <point x="90" y="0" type="line"/>
      <point x="90" y="722" type="line"/>
    </contour>
    <contour>
      <point x="428" y="536" type="curve" smooth="yes"/>
      <point x="428" y="611"/>
      <point x="358" y="625"/>
      <point x="284" y="625" type="curve" smooth="yes"/>
      <point x="209" y="625" type="line"/>
      <point x="209" y="447" type="line"/>
      <point x="287" y="447" type="line" smooth="yes"/>
      <point x="363" y="447"/>
      <point x="428" y="476"/>
    </contour>
    <contour>
      <point x="289" y="98" type="line" smooth="yes"/>
      <point x="385" y="98"/>
      <point x="472" y="129"/>
      <point x="472" y="226" type="curve" smooth="yes"/>
      <point x="472" y="309"/>
      <point x="389" y="354"/>
      <point x="287" y="354" type="curve" smooth="yes"/>
      <point x="261" y="354"/>
      <point x="235" y="354"/>
      <point x="209" y="353" type="curve"/>
      <point x="209" y="98" type="line"/>
    </contour>
  </outline>
</glyph>
<glyph name="C" format="1">
  <advance width="687"/>
  <unicode hex="0043"/>
  <outline>
    <contour>
      <point x="431" y="111" type="curve" smooth="yes"/>
      <point x="505" y="111"/>
      <point x="562" y="129"/>
      <point x="616" y="163" type="curve"/>
      <point x="674" y="64" type="line"/>
      <point x="596" y="19"/>
      <point x="511" y="-6"/>
      <point x="415" y="-6" type="curve" smooth="yes"/>
      <point x="197" y="-6"/>
      <point x="60" y="134"/>
      <point x="60" y="358" type="curve" smooth="yes"/>
      <point x="61" y="587"/>
      <point x="201" y="733"/>
      <point x="413" y="733" type="curve" smooth="yes"/>
      <point x="516" y="733"/>
      <point x="596" y="707"/>
      <point x="671" y="664" type="curve"/>
      <point x="619" y="566" type="line"/>
      <point x="564" y="599"/>
      <point x="499" y="617"/>
      <point x="434" y="617" type="curve" smooth="yes"/>
      <point x="280" y="617"/>
      <point x="188" y="521"/>
      <point x="188" y="360" type="curve" smooth="yes"/>
      <point x="188" y="209"/>
      <point x="284" y="111"/>
    </contour>
  </outline>
</glyph>
<glyph name="D" format="1">
  <advance width="701"/>
  <unicode hex="0044"/>
  <outline>
    <contour>
      <point x="279" y="722" type="line" smooth="yes"/>
      <point x="513" y="722"/>
      <point x="666" y="592"/>
      <point x="666" y="351" type="curve" smooth="yes"/>
      <point x="666" y="132"/>
      <point x="553" y="0"/>
      <point x="331" y="0" type="curve" smooth="yes"/>
      <point x="61" y="0" type="line"/>
      <point x="61" y="722" type="line"/>
    </contour>
    <contour>
      <point x="539" y="343" type="curve" smooth="yes"/>
      <point x="539" y="502"/>
      <point x="448" y="604"/>
      <point x="298" y="604" type="curve" smooth="yes"/>
      <point x="179" y="604" type="line"/>
      <point x="179" y="118" type="line"/>
      <point x="287" y="118" type="line" smooth="yes"/>
      <point x="446" y="118"/>
      <point x="539" y="196"/>
    </contour>
  </outline>
</glyph>
<glyph name="E" format="1">
  <advance width="554"/>
  <unicode hex="0045"/>
  <outline>
    <contour>
      <point x="80" y="0" type="line"/>
      <point x="501" y="0" type="line"/>
      <point x="501" y="96" type="line"/>
      <point x="191" y="96" type="line"/>
      <point x="191" y="325" type="line"/>
      <point x="403" y="325" type="line"/>
      <point x="403" y="421" type="line"/>
      <point x="191" y="421" type="line"/>
      <point x="191" y="626" type="line"/>
      <point x="472" y="626" type="line"/>
      <point x="472" y="722" type="line"/>
      <point x="80" y="722" type="line"/>
    </contour>
  </outline>
</glyph>
<glyph name="F" format="1">
  <advance width="522"/>
  <unicode hex="0046"/>
  <outline>
    <contour>
      <point x="80" y="0" type="line"/>
      <point x="191" y="0" type="line"/>
      <point x="191" y="325" type="line"/>
      <point x="415" y="325" type="line"/>
      <point x="415" y="421" type="line"/>
      <point x="191" y="421" type="line"/>
      <point x="191" y="626" type="line"/>
      <point x="475" y="626" type="line"/>
      <point x="475" y="722" type="line"/>
      <point x="80" y="722" type="line"/>
    </contour>
  </outline>
</glyph>
<glyph name="G" format="1">
  <advance width="782"/>
  <unicode hex="0047"/>
  <outline>
    <contour>
      <point x="438" y="96" type="curve" smooth="yes"/>
      <point x="503" y="96"/>
      <point x="554" y="109"/>
      <point x="608" y="131" type="curve"/>
      <point x="608" y="254" type="line"/>
      <point x="482" y="254" type="line"/>
      <point x="482" y="360" type="line"/>
      <point x="714" y="360" type="line"/>
      <point x="714" y="76" type="line"/>
      <point x="624" y="22"/>
      <point x="525" y="-6"/>
      <point x="415" y="-6" type="curve" smooth="yes"/>
      <point x="198" y="-6"/>
      <point x="62" y="126"/>
      <point x="62" y="348" type="curve" smooth="yes"/>
      <point x="62" y="579"/>
      <point x="210" y="730"/>
      <point x="431" y="730" type="curve" smooth="yes"/>
      <point x="533" y="730"/>
      <point x="613" y="705"/>
      <point x="691" y="659" type="curve"/>
      <point x="640" y="561" type="line"/>
      <point x="581" y="596"/>
      <point x="519" y="614"/>
      <point x="446" y="614" type="curve" smooth="yes"/>
      <point x="288" y="614"/>
      <point x="184" y="512"/>
      <point x="184" y="349" type="curve" smooth="yes"/>
      <point x="184" y="191"/>
      <point x="284" y="96"/>
    </contour>
  </outline>
</glyph>
<glyph name="H" format="1">
  <advance width="761"/>
  <unicode hex="0048"/>
  <outline>
    <contour>
      <point x="575" y="722" type="line"/>
      <point x="694" y="722" type="line"/>
      <point x="694" y="0" type="line"/>
      <point x="575" y="0" type="line"/>
      <point x="575" y="307" type="line"/>
      <point x="193" y="307" type="line"/>
      <point x="193" y="0" type="line"/>
      <point x="74" y="0" type="line"/>
      <point x="75" y="722" type="line"/>
      <point x="194" y="722" type="line"/>
      <point x="194" y="417" type="line"/>
      <point x="575" y="417" type="line"/>
    </contour>
  </outline>
</glyph>
<glyph name="I" format="1">
  <advance width="265"/>
  <unicode hex="0049"/>
  <outline>
    <contour>
      <point x="80" y="0" type="line"/>
      <point x="191" y="0" type="line"/>
      <point x="191" y="722" type="line"/>
      <point x="81" y="722" type="line"/>
    </contour>
  </outline>
</glyph>
<glyph name="J" format="1">
  <advance width="324"/>
  <unicode hex="004A"/>
  <outline>
    <contour>
      <point x="250" y="0" type="curve" smooth="yes"/>
      <point x="250" y="722" type="line"/>
      <point x="140" y="722" type="line"/>
      <point x="139" y="0" type="line"/>
      <point x="139" y="-62"/>
      <point x="119" y="-140"/>
      <point x="45" y="-140" type="curve" smooth="yes"/>
      <point x="24" y="-140"/>
      <point x="4" y="-132"/>
      <point x="-12" y="-116" type="curve"/>
      <point x="-61" y="-199" type="line"/>
      <point x="-32" y="-224"/>
      <point x="5" y="-237"/>
      <point x="43" y="-237" type="curve" smooth="yes"/>
      <point x="169" y="-237"/>
      <point x="250" y="-122"/>
    </contour>
  </outline>
</glyph>
<glyph name="K" format="1">
  <advance width="670"/>
  <unicode hex="004B"/>
  <outline>
    <contour>
      <point x="80" y="0" type="line"/>
      <point x="191" y="0" type="line"/>
      <point x="191" y="311" type="line"/>
      <point x="516" y="0" type="line"/>
      <point x="641" y="0" type="line"/>
      <point x="267" y="375" type="line"/>
      <point x="610" y="722" type="line"/>
      <point x="485" y="722" type="line"/>
      <point x="191" y="420" type="line"/>
      <point x="191" y="722" type="line"/>
      <point x="80" y="722" type="line"/>
    </contour>
  </outline>
</glyph>
<glyph name="L" format="1">
  <advance width="575"/>
  <unicode hex="004C"/>
  <outline>
    <contour>
      <point x="78" y="0" type="line"/>
      <point x="78" y="722" type="line"/>
      <point x="197" y="722" type="line"/>
      <point x="197" y="114" type="line"/>
      <point x="538" y="114" type="line"/>
      <point x="538" y="0" type="line"/>
    </contour>
  </outline>
</glyph>
<glyph name="M" format="1">
  <advance width="878"/>
  <unicode hex="004D"/>
  <outline>
    <contour>
      <point x="665" y="490" type="line"/>
      <point x="707" y="0" type="line"/>
      <point x="818" y="0" type="line"/>
      <point x="752" y="722" type="line"/>
      <point x="679" y="722" type="line"/>
      <point x="642" y="723" type="line"/>
      <point x="421" y="129" type="line"/>
      <point x="212" y="722" type="line"/>
      <point x="101" y="722" type="line"/>
      <point x="47" y="0" type="line"/>
      <point x="158" y="0" type="line"/>
      <point x="191" y="482" type="line"/>
      <point x="373" y="0" type="line"/>
      <point x="480" y="0" type="line"/>
    </contour>
  </outline>
</glyph>
<glyph name="N" format="1">
  <advance width="771"/>
  <unicode hex="004E"/>
  <outline>
    <contour>
      <point x="80" y="0" type="line"/>
      <point x="191" y="0" type="line"/>
      <point x="191" y="560" type="line"/>
      <point x="597" y="0" type="line"/>
      <point x="707" y="0" type="line"/>
      <point x="707" y="722" type="line"/>
      <point x="597" y="722" type="line"/>
      <point x="597" y="162" type="line"/>
      <point x="191" y="722" type="line"/>
      <point x="80" y="722" type="line"/>
    </contour>
  </outline>
</glyph>
<glyph name="O" format="1">
  <advance width="760"/>
  <unicode hex="004F"/>
  <outline>
    <contour>
      <point x="383" y="618" type="curve" smooth="yes"/>
      <point x="243" y="618"/>
      <point x="169" y="504"/>
      <point x="169" y="355" type="curve" smooth="yes"/>
      <point x="169" y="211"/>
      <point x="253" y="103"/>
      <point x="384" y="103" type="curve" smooth="yes"/>
      <point x="527" y="103"/>
      <point x="598" y="218"/>
      <point x="598" y="363" type="curve" smooth="yes"/>
      <point x="598" y="507"/>
      <point x="517" y="618"/>
    </contour>
    <contour>
      <point x="382" y="-6" type="curve" smooth="yes"/>
      <point x="175" y="-6"/>
      <point x="45" y="149"/>
      <point x="45" y="360" type="curve" smooth="yes"/>
      <point x="45" y="573"/>
      <point x="179" y="728"/>
      <point x="383" y="728" type="curve" smooth="yes"/>
      <point x="595" y="728"/>
      <point x="722" y="574"/>
      <point x="722" y="359" type="curve" smooth="yes"/>
      <point x="722" y="148"/>
      <point x="588" y="-6"/>
    </contour>
  </outline>
</glyph>
<glyph name="P" format="1">
  <advance width="566"/>
  <unicode hex="0050"/>
  <outline>
    <contour>
      <point x="289" y="252" type="curve" smooth="yes"/>
      <point x="435" y="252"/>
      <point x="541" y="348"/>
      <point x="541" y="479" type="curve" smooth="yes"/>
      <point x="541" y="648"/>
      <point x="410" y="722"/>
      <point x="259" y="722" type="curve" smooth="yes"/>
      <point x="80" y="722" type="line"/>
      <point x="80" y="0" type="line"/>
      <point x="191" y="0" type="line"/>
      <point x="191" y="266" type="line"/>
      <point x="222" y="257"/>
      <point x="252" y="252"/>
    </contour>
    <contour>
      <point x="432" y="470" type="curve" smooth="yes"/>
      <point x="432" y="395"/>
      <point x="371" y="336"/>
      <point x="279" y="336" type="curve" smooth="yes"/>
      <point x="248" y="336"/>
      <point x="218" y="344"/>
      <point x="191" y="358" type="curve"/>
      <point x="191" y="626" type="line"/>
      <point x="259" y="626" type="line" smooth="yes"/>
      <point x="352" y="626"/>
      <point x="432" y="575"/>
    </contour>
  </outline>
</glyph>
<glyph name="Q" format="1">
  <advance width="765"/>
  <unicode hex="0051"/>
  <outline>
    <contour>
      <point x="478" y="6" type="curve"/>
      <point x="544" y="-66"/>
      <point x="648" y="-124"/>
      <point x="769" y="-132" type="curve"/>
      <point x="769" y="-234" type="line"/>
      <point x="589" y="-229"/>
      <point x="436" y="-127"/>
      <point x="355" y="-5" type="curve"/>
      <point x="165" y="8"/>
      <point x="41" y="156"/>
      <point x="41" y="365" type="curve" smooth="yes"/>
      <point x="41" y="576"/>
      <point x="179" y="728"/>
      <point x="387" y="728" type="curve" smooth="yes"/>
      <point x="597" y="728"/>
      <point x="731" y="575"/>
      <point x="731" y="356" type="curve" smooth="yes"/>
      <point x="731" y="180"/>
      <point x="633" y="45"/>
    </contour>
    <contour>
      <point x="385" y="615" type="curve" smooth="yes"/>
      <point x="240" y="615"/>
      <point x="162" y="508"/>
      <point x="162" y="365" type="curve" smooth="yes"/>
      <point x="162" y="217"/>
      <point x="252" y="106"/>
      <point x="386" y="106" type="curve" smooth="yes"/>
      <point x="534" y="106"/>
      <point x="609" y="216"/>
      <point x="609" y="358" type="curve" smooth="yes"/>
      <point x="609" y="505"/>
      <point x="520" y="615"/>
    </contour>
  </outline>
</glyph>
<glyph name="R" format="1">
  <advance width="689"/>
  <unicode hex="0052"/>
  <outline>
    <contour>
      <point x="298" y="722" type="curve" smooth="yes"/>
      <point x="101" y="722" type="line"/>
      <point x="101" y="0" type="line"/>
      <point x="211" y="0" type="line"/>
      <point x="211" y="306" type="line"/>
      <point x="273" y="306" type="line" smooth="yes"/>
      <point x="292" y="306"/>
      <point x="311" y="306"/>
      <point x="329" y="308" type="curve"/>
      <point x="564" y="0" type="line"/>
      <point x="686" y="0" type="line"/>
      <point x="436" y="330" type="line"/>
      <point x="523" y="360"/>
      <point x="580" y="418"/>
      <point x="580" y="499" type="curve" smooth="yes"/>
      <point x="580" y="651"/>
      <point x="433" y="722"/>
    </contour>
    <contour>
      <point x="468" y="501" type="curve" smooth="yes"/>
      <point x="468" y="428"/>
      <point x="382" y="394"/>
      <point x="273" y="394" type="curve" smooth="yes"/>
      <point x="211" y="394" type="line"/>
      <point x="211" y="626" type="line"/>
      <point x="298" y="626" type="line" smooth="yes"/>
      <point x="378" y="626"/>
      <point x="468" y="591"/>
    </contour>
  </outline>
</glyph>
<glyph name="S" format="1">
  <advance width="589"/>
  <unicode hex="0053"/>
  <outline>
    <contour>
      <point x="285" y="630" type="curve" smooth="yes"/>
      <point x="347" y="630"/>
      <point x="402" y="612"/>
      <point x="453" y="589" type="curve"/>
      <point x="491" y="681" type="line"/>
      <point x="429" y="711"/>
      <point x="366" y="731"/>
      <point x="287" y="731" type="curve" smooth="yes"/>
      <point x="161" y="731"/>
      <point x="65" y="660"/>
      <point x="65" y="557" type="curve" smooth="yes"/>
      <point x="65" y="544"/>
      <point x="67" y="531"/>
      <point x="70" y="517" type="curve" smooth="yes"/>
      <point x="92" y="424"/>
      <point x="183" y="372"/>
      <point x="272" y="334" type="curve" smooth="yes"/>
      <point x="345" y="302"/>
      <point x="420" y="257"/>
      <point x="420" y="187" type="curve" smooth="yes"/>
      <point x="420" y="119"/>
      <point x="366" y="94"/>
      <point x="300" y="94" type="curve" smooth="yes"/>
      <point x="224" y="94"/>
      <point x="155" y="110"/>
      <point x="87" y="137" type="curve"/>
      <point x="55" y="39" type="line"/>
      <point x="128" y="11"/>
      <point x="201" y="-7"/>
      <point x="284" y="-7" type="curve" smooth="yes"/>
      <point x="426" y="-7"/>
      <point x="535" y="66"/>
      <point x="535" y="184" type="curve" smooth="yes"/>
      <point x="535" y="304"/>
      <point x="439" y="371"/>
      <point x="342" y="413" type="curve" smooth="yes"/>
      <point x="268" y="445"/>
      <point x="181" y="483"/>
      <point x="181" y="550" type="curve" smooth="yes"/>
      <point x="181" y="606"/>
      <point x="230" y="630"/>
    </contour>
  </outline>
</glyph>
<glyph name="T" format="1">
  <advance width="626"/>
  <unicode hex="0054"/>
  <outline>
    <contour>
      <point x="16" y="613" type="line"/>
      <point x="16" y="728" type="line"/>
      <point x="619" y="728" type="line"/>
      <point x="619" y="613" type="line"/>
      <point x="365" y="613" type="line"/>
      <point x="365" y="0" type="line"/>
      <point x="246" y="0" type="line"/>
      <point x="246" y="613" type="line"/>
    </contour>
  </outline>
</glyph>
<glyph name="U" format="1">
  <advance width="708"/>
  <unicode hex="0055"/>
  <outline>
    <contour>
      <point x="70" y="722" type="line"/>
      <point x="70" y="313" type="line" smooth="yes"/>
      <point x="71" y="119"/>
      <point x="171" y="-6"/>
      <point x="358" y="-6" type="curve" smooth="yes"/>
      <point x="553" y="-6"/>
      <point x="659" y="121"/>
      <point x="659" y="322" type="curve" smooth="yes"/>
      <point x="659" y="722" type="line"/>
      <point x="549" y="722" type="line"/>
      <point x="549" y="300" type="line" smooth="yes"/>
      <point x="549" y="179"/>
      <point x="494" y="97"/>
      <point x="379" y="97" type="curve" smooth="yes"/>
      <point x="245" y="97"/>
      <point x="180" y="193"/>
      <point x="180" y="334" type="curve" smooth="yes"/>
      <point x="181" y="722" type="line"/>
    </contour>
  </outline>
</glyph>
<glyph name="V" format="1">
  <advance width="678"/>
  <unicode hex="0056"/>
  <outline>
    <contour>
      <point x="658" y="722" type="line"/>
      <point x="547" y="722" type="line"/>
      <point x="350" y="152" type="line"/>
      <point x="159" y="722" type="line"/>
      <point x="48" y="722" type="line"/>
      <point x="298" y="0" type="line"/>
      <point x="409" y="0" type="line"/>
    </contour>
  </outline>
</glyph>
<glyph name="W" format="1">
  <advance width="965"/>
  <unicode hex="0057"/>
  <outline>
    <contour>
      <point x="932" y="722" type="line"/>
      <point x="821" y="722" type="line"/>
      <point x="673" y="174" type="line"/>
      <point x="553" y="722" type="line"/>
      <point x="449" y="722" type="line"/>
      <point x="318" y="167" type="line"/>
      <point x="158" y="722" type="line"/>
      <point x="47" y="722" type="line"/>
      <point x="278" y="0" type="line"/>
      <point x="382" y="0" type="line"/>
      <point x="509" y="537" type="line"/>
      <point x="626" y="0" type="line"/>
      <point x="730" y="0" type="line"/>
    </contour>
  </outline>
</glyph>
<glyph name="X" format="1">
  <advance width="697"/>
  <unicode hex="0058"/>
  <outline>
    <contour>
      <point x="65" y="722" type="line"/>
      <point x="193" y="722" type="line"/>
      <point x="357" y="467" type="line"/>
      <point x="543" y="722" type="line"/>
      <point x="674" y="722" type="line"/>
      <point x="418" y="372" type="line"/>
      <point x="658" y="0" type="line"/>
      <point x="531" y="0" type="line"/>
      <point x="352" y="277" type="line"/>
      <point x="154" y="0" type="line"/>
      <point x="23" y="0" type="line"/>
      <point x="293" y="368" type="line"/>
    </contour>
  </outline>
</glyph>
<glyph name="Y" format="1">
  <advance width="629"/>
  <unicode hex="0059"/>
  <outline>
    <contour>
      <point x="509" y="722" type="line"/>
      <point x="331" y="458" type="line"/>
      <point x="152" y="722" type="line"/>
      <point x="37" y="722" type="line"/>
      <point x="270" y="368" type="line"/>
      <point x="270" y="0" type="line"/>
      <point x="381" y="0" type="line"/>
      <point x="381" y="368" type="line"/>
      <point x="626" y="722" type="line"/>
    </contour>
  </outline>
</glyph>
<glyph name="Z" format="1">
  <advance width="674"/>
  <unicode hex="005A"/>
  <outline>
    <contour>
      <point x="116" y="605" type="line"/>
      <point x="116" y="715" type="line"/>
      <point x="604" y="716" type="line"/>
      <point x="604" y="605" type="line"/>
      <point x="188" y="110" type="line"/>
      <point x="630" y="110" type="line"/>
      <point x="630" y="0" type="line"/>
      <point x="52" y="0" type="line"/>
      <point x="52" y="110" type="line"/>
      <point x="469" y="605" type="line"/>
    </contour>
  </outline>
</glyph>
<glyph name="underscore" format="1">
  <advance width="723"/>
  <unicode hex="005F"/>
  <outline>
    <contour>
      <point x="41" y="-148" type="line"/>
      <point x="692" y="-148" type="line"/>
      <point x="692" y="-266" type="line"/>
      <point x="41" y="-266" type="line"/>
    </contour>
  </outline>
</glyph>
<glyph name="grave" format="1">
  <advance width="358"/>
  <unicode hex="0060"/>
  <outline>
    <contour>
      <point x="209" y="656" type="line"/>
      <point x="60" y="846" type="line"/>
      <point x="187" y="846" type="line"/>
      <point x="327" y="656" type="line"/>
    </contour>
  </outline>
</glyph>
<glyph name="a" format="1">
  <advance width="634"/>
  <unicode hex="0061"/>
  <outline>
    <contour>
      <point x="409" y="337" type="curve"/>
      <point x="407" y="408"/>
      <point x="346" y="448"/>
      <point x="264" y="448" type="curve" smooth="yes"/>
      <point x="219" y="448"/>
      <point x="174" y="435"/>
      <point x="135" y="412" type="curve"/>
      <point x="86" y="493" type="line"/>
      <point x="144" y="528"/>
      <point x="209" y="545"/>
      <point x="275" y="545" type="curve" smooth="yes"/>
      <point x="420" y="545"/>
      <point x="527" y="475"/>
      <point x="527" y="346" type="curve" smooth="yes"/>
      <point x="527" y="0" type="line"/>
      <point x="409" y="0" type="line"/>
      <point x="409" y="64" type="line"/>
      <point x="364" y="18"/>
      <point x="310" y="-10"/>
      <point x="247" y="-10" type="curve" smooth="yes"/>
      <point x="141" y="-10"/>
      <point x="67" y="50"/>
      <point x="67" y="145" type="curve" smooth="yes"/>
      <point x="67" y="278"/>
      <point x="198" y="340"/>
      <point x="353" y="340" type="curve" smooth="yes"/>
      <point x="371" y="340"/>
      <point x="390" y="339"/>
    </contour>
    <contour>
      <point x="409" y="254" type="line"/>
      <point x="387" y="256"/>
      <point x="365" y="258"/>
      <point x="345" y="258" type="curve" smooth="yes"/>
      <point x="255" y="258"/>
      <point x="185" y="232"/>
      <point x="185" y="154" type="curve" smooth="yes"/>
      <point x="185" y="113"/>
      <point x="220" y="91"/>
      <point x="264" y="91" type="curve" smooth="yes"/>
      <point x="329" y="91"/>
      <point x="374" y="121"/>
      <point x="409" y="169" type="curve"/>
    </contour>
  </outline>
</glyph>
<glyph name="b" format="1">
  <advance width="641"/>
  <unicode hex="0062"/>
  <outline>
    <contour>
      <point x="331" y="-3" type="curve" smooth="yes"/>
      <point x="482" y="-3"/>
      <point x="596" y="119"/>
      <point x="596" y="273" type="curve" smooth="yes"/>
      <point x="596" y="428"/>
      <point x="498" y="525"/>
      <point x="342" y="525" type="curve" smooth="yes"/>
      <point x="286" y="525"/>
      <point x="231" y="510"/>
      <point x="184" y="481" type="curve"/>
      <point x="184" y="843" type="line"/>
      <point x="73" y="843" type="line"/>
      <point x="73" y="0" type="line"/>
      <point x="184" y="0" type="line"/>
      <point x="184" y="39" type="line"/>
      <point x="226" y="12"/>
      <point x="271" y="-3"/>
    </contour>
    <contour>
      <point x="326" y="440" type="curve" smooth="yes"/>
      <point x="420" y="440"/>
      <point x="486" y="366"/>
      <point x="486" y="258" type="curve" smooth="yes"/>
      <point x="486" y="164"/>
      <point x="426" y="74"/>
      <point x="319" y="74" type="curve" smooth="yes"/>
      <point x="265" y="74"/>
      <point x="215" y="100"/>
      <point x="184" y="144" type="curve"/>
      <point x="184" y="372" type="line"/>
      <point x="218" y="412"/>
      <point x="264" y="440"/>
    </contour>
  </outline>
</glyph>
<glyph name="c" format="1">
  <advance width="489"/>
  <unicode hex="0063"/>
  <outline>
    <contour>
      <point x="164" y="264" type="curve" smooth="yes"/>
      <point x="164" y="171"/>
      <point x="227" y="96"/>
      <point x="332" y="96" type="curve" smooth="yes"/>
      <point x="369" y="96"/>
      <point x="402" y="110"/>
      <point x="432" y="136" type="curve"/>
      <point x="487" y="58" type="line"/>
      <point x="436" y="12"/>
      <point x="377" y="-10"/>
      <point x="313" y="-10" type="curve" smooth="yes"/>
      <point x="144" y="-10"/>
      <point x="43" y="105"/>
      <point x="43" y="270" type="curve" smooth="yes"/>
      <point x="43" y="426"/>
      <point x="152" y="539"/>
      <point x="312" y="539" type="curve" smooth="yes"/>
      <point x="375" y="539"/>
      <point x="424" y="522"/>
      <point x="470" y="485" type="curve"/>
      <point x="423" y="402" type="line"/>
      <point x="393" y="426"/>
      <point x="360" y="438"/>
      <point x="326" y="438" type="curve" smooth="yes"/>
      <point x="223" y="438"/>
      <point x="164" y="359"/>
    </contour>
  </outline>
</glyph>
<glyph name="d" format="1">
  <advance width="641"/>
  <unicode hex="0064"/>
  <outline>
    <contour>
      <point x="333" y="443" type="curve" smooth="yes"/>
      <point x="225" y="443"/>
      <point x="173" y="371"/>
      <point x="173" y="272" type="curve" smooth="yes"/>
      <point x="173" y="167"/>
      <point x="238" y="89"/>
      <point x="328" y="89" type="curve" smooth="yes"/>
      <point x="386" y="89"/>
      <point x="428" y="114"/>
      <point x="455" y="149" type="curve"/>
      <point x="455" y="229"/>
      <point x="456" y="309"/>
      <point x="456" y="389" type="curve" smooth="yes"/>
      <point x="456" y="410" type="line"/>
      <point x="420" y="431"/>
      <point x="375" y="443"/>
    </contour>
    <contour>
      <point x="293" y="544" type="curve" smooth="yes"/>
      <point x="358" y="544"/>
      <point x="413" y="519"/>
      <point x="456" y="489" type="curve"/>
      <point x="456" y="587"/>
      <point x="455" y="685"/>
      <point x="454" y="783" type="curve"/>
      <point x="573" y="783" type="line"/>
      <point x="574" y="652"/>
      <point x="575" y="521"/>
      <point x="575" y="389" type="curve" smooth="yes"/>
      <point x="575" y="296"/>
      <point x="574" y="202"/>
      <point x="574" y="109" type="curve" smooth="yes"/>
      <point x="574" y="73"/>
      <point x="574" y="36"/>
      <point x="573" y="0" type="curve"/>
      <point x="455" y="0" type="line"/>
      <point x="455" y="53" type="line"/>
      <point x="411" y="16"/>
      <point x="355" y="-6"/>
      <point x="292" y="-6" type="curve" smooth="yes"/>
      <point x="144" y="-6"/>
      <point x="54" y="109"/>
      <point x="54" y="267" type="curve" smooth="yes"/>
      <point x="54" y="428"/>
      <point x="159" y="544"/>
    </contour>
  </outline>
</glyph>
<glyph name="e" format="1">
  <advance width="580"/>
  <unicode hex="0065"/>
  <outline>
    <contour>
      <point x="319" y="83" type="curve" smooth="yes"/>
      <point x="231" y="83"/>
      <point x="174" y="146"/>
      <point x="161" y="240" type="curve"/>
      <point x="526" y="240" type="line"/>
      <point x="528" y="255"/>
      <point x="530" y="271"/>
      <point x="530" y="287" type="curve" smooth="yes"/>
      <point x="530" y="433"/>
      <point x="439" y="527"/>
      <point x="295" y="527" type="curve" smooth="yes"/>
      <point x="151" y="527"/>
      <point x="51" y="411"/>
      <point x="51" y="255" type="curve" smooth="yes"/>
      <point x="51" y="95"/>
      <point x="140" y="-7"/>
      <point x="300" y="-7" type="curve" smooth="yes"/>
      <point x="380" y="-7"/>
      <point x="457" y="20"/>
      <point x="519" y="72" type="curve"/>
      <point x="461" y="145" type="line"/>
      <point x="426" y="107"/>
      <point x="379" y="83"/>
    </contour>
    <contour>
      <point x="419" y="314" type="curve"/>
      <point x="161" y="314" type="line"/>
      <point x="172" y="387"/>
      <point x="218" y="439"/>
      <point x="293" y="440" type="curve" smooth="yes"/>
      <point x="362" y="440"/>
      <point x="409" y="388"/>
    </contour>
  </outline>
</glyph>
<glyph name="f" format="1">
  <advance width="482"/>
  <unicode hex="0066"/>
  <outline>
    <contour>
      <point x="283" y="532" type="line"/>
      <point x="463" y="532" type="line"/>
      <point x="463" y="423" type="line"/>
      <point x="283" y="423" type="line"/>
      <point x="283" y="0" type="line"/>
      <point x="165" y="0" type="line"/>
      <point x="165" y="423" type="line"/>
      <point x="29" y="423" type="line"/>
      <point x="29" y="532" type="line"/>
      <point x="165" y="532" type="line"/>
      <point x="165" y="593" type="line" smooth="yes"/>
      <point x="165" y="724"/>
      <point x="259" y="812"/>
      <point x="370" y="812" type="curve" smooth="yes"/>
      <point x="406" y="812"/>
      <point x="443" y="803"/>
      <point x="480" y="783" type="curve"/>
      <point x="446" y="691" type="line"/>
      <point x="427" y="701"/>
      <point x="407" y="706"/>
      <point x="389" y="706" type="curve" smooth="yes"/>
      <point x="332" y="706"/>
      <point x="283" y="660"/>
      <point x="283" y="593" type="curve" smooth="yes"/>
    </contour>
  </outline>
</glyph>
<glyph name="g" format="1">
  <advance width="595"/>
  <unicode hex="0067"/>
  <outline>
    <contour>
      <point x="459" y="-109" type="curve" smooth="yes"/>
      <point x="459" y="-172"/>
      <point x="376" y="-215"/>
      <point x="287" y="-215" type="curve" smooth="yes"/>
      <point x="195" y="-215"/>
      <point x="126" y="-176"/>
      <point x="126" y="-97" type="curve" smooth="yes"/>
      <point x="126" y="-62"/>
      <point x="138" y="-34"/>
      <point x="157" y="-11" type="curve"/>
      <point x="202" y="-23"/>
      <point x="260" y="-24"/>
      <point x="327" y="-24" type="curve" smooth="yes"/>
      <point x="387" y="-24"/>
      <point x="459" y="-41"/>
    </contour>
    <contour>
      <point x="264" y="-311" type="curve" smooth="yes"/>
      <point x="266" y="-311" type="line" smooth="yes"/>
      <point x="430" y="-311"/>
      <point x="566" y="-212"/>
      <point x="566" y="-97" type="curve" smooth="yes"/>
      <point x="566" y="17"/>
      <point x="461" y="65"/>
      <point x="363" y="65" type="curve" smooth="yes"/>
      <point x="326" y="65"/>
      <point x="291" y="63"/>
      <point x="261" y="63" type="curve" smooth="yes"/>
      <point x="197" y="63"/>
      <point x="153" y="71"/>
      <point x="153" y="121" type="curve" smooth="yes"/>
      <point x="153" y="135"/>
      <point x="157" y="152"/>
      <point x="162" y="163" type="curve"/>
      <point x="196" y="144"/>
      <point x="236" y="133"/>
      <point x="279" y="133" type="curve" smooth="yes"/>
      <point x="403" y="133"/>
      <point x="505" y="225"/>
      <point x="505" y="336" type="curve" smooth="yes"/>
      <point x="505" y="373"/>
      <point x="494" y="403"/>
      <point x="479" y="427" type="curve"/>
      <point x="576" y="424" type="line"/>
      <point x="576" y="498" type="line"/>
      <point x="411" y="492" type="line"/>
      <point x="375" y="513"/>
      <point x="337" y="524"/>
      <point x="289" y="524" type="curve" smooth="yes"/>
      <point x="169" y="524"/>
      <point x="63" y="441"/>
      <point x="63" y="326" type="curve" smooth="yes"/>
      <point x="63" y="282"/>
      <point x="78" y="242"/>
      <point x="104" y="211" type="curve"/>
      <point x="81" y="183"/>
      <point x="68" y="148"/>
      <point x="68" y="110" type="curve" smooth="yes"/>
      <point x="68" y="71"/>
      <point x="78" y="42"/>
      <point x="96" y="23" type="curve"/>
      <point x="58" y="-16"/>
      <point x="36" y="-69"/>
      <point x="36" y="-125" type="curve" smooth="yes"/>
      <point x="36" y="-253"/>
      <point x="134" y="-311"/>
    </contour>
    <contour>
      <point x="284" y="437" type="curve" smooth="yes"/>
      <point x="346" y="437"/>
      <point x="400" y="390"/>
      <point x="400" y="327" type="curve" smooth="yes"/>
      <point x="400" y="267"/>
      <point x="349" y="221"/>
      <point x="287" y="221" type="curve" smooth="yes"/>
      <point x="224" y="221"/>
      <point x="172" y="270"/>
      <point x="172" y="330" type="curve" smooth="yes"/>
      <point x="172" y="391"/>
      <point x="221" y="437"/>
    </contour>
  </outline>
</glyph>
<glyph name="h" format="1">
  <advance width="594"/>
  <unicode hex="0068"/>
  <outline>
    <contour>
      <point x="319" y="446" type="curve" smooth="yes"/>
      <point x="378" y="446"/>
      <point x="418" y="402"/>
      <point x="418" y="340" type="curve" smooth="yes"/>
      <point x="418" y="0" type="line"/>
      <point x="529" y="0" type="line"/>
      <point x="528" y="117"/>
      <point x="528" y="233"/>
      <point x="528" y="350" type="curve" smooth="yes"/>
      <point x="528" y="454"/>
      <point x="454" y="528"/>
      <point x="337" y="528" type="curve" smooth="yes"/>
      <point x="281" y="528"/>
      <point x="228" y="509"/>
      <point x="183" y="476" type="curve"/>
      <point x="183" y="706" type="line"/>
      <point x="183" y="843" type="line"/>
      <point x="73" y="843" type="line"/>
      <point x="73" y="0" type="line"/>
      <point x="184" y="0" type="line"/>
      <point x="184" y="121"/>
      <point x="183" y="241"/>
      <point x="183" y="362" type="curve"/>
      <point x="216" y="410"/>
      <point x="260" y="446"/>
    </contour>
  </outline>
</glyph>
<glyph name="i" format="1">
  <advance width="279"/>
  <unicode hex="0069"/>
  <outline>
    <contour>
      <point x="79" y="690" type="line"/>
      <point x="79" y="831" type="line"/>
      <point x="206" y="831" type="line"/>
      <point x="206" y="690" type="line"/>
    </contour>
    <contour>
      <point x="84" y="0" type="line"/>
      <point x="83" y="533" type="line"/>
      <point x="202" y="533" type="line"/>
      <point x="203" y="0" type="line"/>
    </contour>
  </outline>
</glyph>
<glyph name="j" format="1">
  <advance width="375"/>
  <unicode hex="006A"/>
  <outline>
    <contour>
      <point x="150" y="683" type="line"/>
      <point x="150" y="829" type="line"/>
      <point x="277" y="829" type="line"/>
      <point x="277" y="683" type="line"/>
    </contour>
    <contour>
      <point x="49" y="-202" type="line"/>
      <point x="54" y="-203"/>
      <point x="59" y="-203"/>
      <point x="64" y="-203" type="curve" smooth="yes"/>
      <point x="113" y="-203"/>
      <point x="155" y="-164"/>
      <point x="155" y="-113" type="curve" smooth="yes"/>
      <point x="155" y="535" type="line"/>
      <point x="273" y="535" type="line"/>
      <point x="273" y="-113" type="line" smooth="yes"/>
      <point x="273" y="-225"/>
      <point x="182" y="-313"/>
      <point x="73" y="-313" type="curve" smooth="yes"/>
      <point x="65" y="-313"/>
      <point x="57" y="-313"/>
      <point x="49" y="-312" type="curve"/>
    </contour>
  </outline>
</glyph>
<glyph name="k" format="1">
  <advance width="623"/>
  <unicode hex="006B"/>
  <outline>
    <contour>
      <point x="103" y="0" type="line"/>
      <point x="103" y="783" type="line"/>
      <point x="221" y="783" type="line"/>
      <point x="221" y="349" type="line"/>
      <point x="432" y="533" type="line"/>
      <point x="582" y="533" type="line"/>
      <point x="313" y="293" type="line"/>
      <point x="605" y="0" type="line"/>
      <point x="459" y="0" type="line"/>
      <point x="221" y="238" type="line"/>
      <point x="221" y="0" type="line"/>
    </contour>
  </outline>
</glyph>
<glyph name="l" format="1">
  <advance width="292"/>
  <unicode hex="006C"/>
  <outline>
    <contour>
      <point x="93" y="1" type="line"/>
      <point x="204" y="1" type="line"/>
      <point x="203" y="843" type="line"/>
      <point x="93" y="843" type="line"/>
    </contour>
  </outline>
</glyph>
<glyph name="m" format="1">
  <advance width="941"/>
  <unicode hex="006D"/>
  <outline>
    <contour>
      <point x="692" y="543" type="curve" smooth="yes"/>
      <point x="814" y="543"/>
      <point x="871" y="451"/>
      <point x="871" y="345" type="curve" smooth="yes"/>
      <point x="871" y="1" type="line"/>
      <point x="753" y="1" type="line"/>
      <point x="752" y="114"/>
      <point x="752" y="227"/>
      <point x="752" y="340" type="curve" smooth="yes"/>
      <point x="752" y="397"/>
      <point x="707" y="436"/>
      <point x="650" y="436" type="curve" smooth="yes"/>
      <point x="607" y="436"/>
      <point x="565" y="415"/>
      <point x="533" y="386" type="curve"/>
      <point x="535" y="373"/>
      <point x="536" y="360"/>
      <point x="536" y="347" type="curve" smooth="yes"/>
      <point x="536" y="232"/>
      <point x="535" y="117"/>
      <point x="535" y="1" type="curve"/>
      <point x="416" y="1" type="line"/>
      <point x="417" y="118"/>
      <point x="417" y="234"/>
      <point x="417" y="351" type="curve" smooth="yes"/>
      <point x="417" y="404"/>
      <point x="374" y="441"/>
      <point x="319" y="441" type="curve" smooth="yes"/>
      <point x="317" y="441" type="line"/>
      <point x="276" y="440"/>
      <point x="232" y="420"/>
      <point x="199" y="390" type="curve"/>
      <point x="199" y="251"/>
      <point x="199" y="145"/>
      <point x="198" y="0" type="curve"/>
      <point x="79" y="0" type="line"/>
      <point x="80" y="159"/>
      <point x="80" y="271"/>
      <point x="80" y="431" type="curve" smooth="yes"/>
      <point x="80" y="448"/>
      <point x="81" y="465"/>
      <point x="81" y="482" type="curve" smooth="yes"/>
      <point x="81" y="499"/>
      <point x="80" y="516"/>
      <point x="80" y="533" type="curve"/>
      <point x="199" y="533" type="line"/>
      <point x="199" y="489" type="line"/>
      <point x="244" y="525"/>
      <point x="301" y="546"/>
      <point x="357" y="546" type="curve" smooth="yes"/>
      <point x="432" y="546"/>
      <point x="480" y="512"/>
      <point x="508" y="463" type="curve"/>
      <point x="555" y="512"/>
      <point x="624" y="543"/>
    </contour>
  </outline>
</glyph>
<glyph name="n" format="1">
  <advance width="607"/>
  <unicode hex="006E"/>
  <outline>
    <contour>
      <point x="364" y="543" type="curve" smooth="yes"/>
      <point x="488" y="543"/>
      <point x="545" y="451"/>
      <point x="545" y="338" type="curve" smooth="yes"/>
      <point x="545" y="0" type="line"/>
      <point x="426" y="0" type="line"/>
      <point x="426" y="330" type="line" smooth="yes"/>
      <point x="426" y="392"/>
      <point x="383" y="435"/>
      <point x="322" y="435" type="curve" smooth="yes"/>
      <point x="272" y="435"/>
      <point x="227" y="411"/>
      <point x="192" y="378" type="curve"/>
      <point x="192" y="252"/>
      <point x="191" y="126"/>
      <point x="190" y="0" type="curve"/>
      <point x="72" y="0" type="line"/>
      <point x="73" y="144"/>
      <point x="73" y="287"/>
      <point x="74" y="431" type="curve"/>
      <point x="74" y="533" type="line"/>
      <point x="192" y="533" type="line"/>
      <point x="192" y="477" type="line"/>
      <point x="241" y="517"/>
      <point x="303" y="543"/>
    </contour>
  </outline>
</glyph>
<glyph name="o" format="1">
  <advance width="654"/>
  <unicode hex="006F"/>
  <outline>
    <contour>
      <point x="328" y="428" type="curve" smooth="yes"/>
      <point x="421" y="428"/>
      <point x="486" y="357"/>
      <point x="486" y="258" type="curve" smooth="yes"/>
      <point x="486" y="157"/>
      <point x="429" y="86"/>
      <point x="326" y="86" type="curve" smooth="yes"/>
      <point x="232" y="86"/>
      <point x="168" y="159"/>
      <point x="168" y="262" type="curve" smooth="yes"/>
      <point x="168" y="358"/>
      <point x="225" y="428"/>
    </contour>
    <contour>
      <point x="330" y="-8" type="curve" smooth="yes"/>
      <point x="484" y="-8"/>
      <point x="592" y="101"/>
      <point x="592" y="261" type="curve" smooth="yes"/>
      <point x="592" y="420"/>
      <point x="489" y="524"/>
      <point x="324" y="524" type="curve" smooth="yes"/>
      <point x="168" y="524"/>
      <point x="60" y="417"/>
      <point x="60" y="260" type="curve" smooth="yes"/>
      <point x="60" y="97"/>
      <point x="162" y="-8"/>
    </contour>
  </outline>
</glyph>
<glyph name="p" format="1">
  <advance width="649"/>
  <unicode hex="0070"/>
  <outline>
    <contour>
      <point x="601" y="289" type="curve" smooth="yes"/>
      <point x="601" y="422"/>
      <point x="502" y="525"/>
      <point x="354" y="525" type="curve" smooth="yes"/>
      <point x="294" y="525"/>
      <point x="235" y="506"/>
      <point x="187" y="472" type="curve"/>
      <point x="187" y="518" type="line"/>
      <point x="76" y="518" type="line"/>
      <point x="77" y="471"/>
      <point x="77" y="424"/>
      <point x="77" y="378" type="curve" smooth="yes"/>
      <point x="78" y="292"/>
      <point x="78" y="207"/>
      <point x="78" y="121" type="curve" smooth="yes"/>
      <point x="78" y="-17"/>
      <point x="77" y="-156"/>
      <point x="76" y="-294" type="curve"/>
      <point x="187" y="-294" type="line"/>
      <point x="188" y="-192"/>
      <point x="189" y="-89"/>
      <point x="189" y="13" type="curve"/>
      <point x="222" y="1"/>
      <point x="258" y="-6"/>
      <point x="294" y="-6" type="curve" smooth="yes"/>
      <point x="458" y="-5"/>
      <point x="601" y="121"/>
    </contour>
    <contour>
      <point x="342" y="449" type="curve" smooth="yes"/>
      <point x="427" y="449"/>
      <point x="491" y="378"/>
      <point x="491" y="288" type="curve" smooth="yes"/>
      <point x="491" y="173"/>
      <point x="406" y="84"/>
      <point x="290" y="84" type="curve" smooth="yes"/>
      <point x="254" y="84"/>
      <point x="220" y="94"/>
      <point x="189" y="113" type="curve"/>
      <point x="189" y="192"/>
      <point x="188" y="271"/>
      <point x="188" y="350" type="curve"/>
      <point x="221" y="403"/>
      <point x="266" y="449"/>
    </contour>
  </outline>
</glyph>
<glyph name="q" format="1">
  <advance width="643"/>
  <unicode hex="0071"/>
  <outline>
    <contour>
      <point x="310" y="540" type="curve" smooth="yes"/>
      <point x="370" y="540"/>
      <point x="419" y="521"/>
      <point x="458" y="495" type="curve"/>
      <point x="458" y="533" type="line"/>
      <point x="576" y="533" type="line"/>
      <point x="576" y="-300" type="line"/>
      <point x="458" y="-300" type="line"/>
      <point x="458" y="27" type="line"/>
      <point x="416" y="4"/>
      <point x="369" y="-7"/>
      <point x="320" y="-7" type="curve" smooth="yes"/>
      <point x="164" y="-7"/>
      <point x="44" y="99"/>
      <point x="44" y="266" type="curve" smooth="yes"/>
      <point x="44" y="418"/>
      <point x="163" y="540"/>
    </contour>
    <contour>
      <point x="359" y="77" type="curve" smooth="yes"/>
      <point x="396" y="77"/>
      <point x="428" y="86"/>
      <point x="458" y="103" type="curve"/>
      <point x="458" y="408" type="line"/>
      <point x="426" y="436"/>
      <point x="384" y="451"/>
      <point x="341" y="451" type="curve" smooth="yes"/>
      <point x="235" y="451"/>
      <point x="168" y="365"/>
      <point x="168" y="271" type="curve" smooth="yes"/>
      <point x="168" y="153"/>
      <point x="255" y="77"/>
    </contour>
  </outline>
</glyph>
<glyph name="r" format="1">
  <advance width="462"/>
  <unicode hex="0072"/>
  <outline>
    <contour>
      <point x="199" y="458" type="curve"/>
      <point x="199" y="518" type="line"/>
      <point x="88" y="518" type="line"/>
      <point x="88" y="0" type="line"/>
      <point x="199" y="0" type="line"/>
      <point x="199" y="334" type="line"/>
      <point x="232" y="374"/>
      <point x="277" y="404"/>
      <point x="327" y="417" type="curve"/>
      <point x="384" y="424" type="line"/>
      <point x="397" y="424"/>
      <point x="410" y="423"/>
      <point x="423" y="421" type="curve"/>
      <point x="441" y="523" type="line"/>
      <point x="430" y="524"/>
      <point x="420" y="524"/>
      <point x="409" y="524" type="curve" smooth="yes"/>
      <point x="326" y="524"/>
      <point x="252" y="494"/>
    </contour>
  </outline>
</glyph>
<glyph name="s" format="1">
  <advance width="509"/>
  <unicode hex="0073"/>
  <outline>
    <contour>
      <point x="267" y="436" type="curve" smooth="yes"/>
      <point x="314" y="436"/>
      <point x="358" y="422"/>
      <point x="398" y="396" type="curve"/>
      <point x="436" y="476" type="line"/>
      <point x="386" y="507"/>
      <point x="334" y="524"/>
      <point x="268" y="524" type="curve" smooth="yes"/>
      <point x="160" y="524"/>
      <point x="70" y="460"/>
      <point x="70" y="370" type="curve" smooth="yes"/>
      <point x="70" y="275"/>
      <point x="152" y="235"/>
      <point x="234" y="216" type="curve" smooth="yes"/>
      <point x="290" y="202"/>
      <point x="356" y="197"/>
      <point x="356" y="146" type="curve" smooth="yes"/>
      <point x="356" y="95"/>
      <point x="298" y="85"/>
      <point x="243" y="85" type="curve" smooth="yes"/>
      <point x="181" y="85"/>
      <point x="124" y="101"/>
      <point x="71" y="133" type="curve"/>
      <point x="28" y="52" type="line"/>
      <point x="89" y="13"/>
      <point x="154" y="-6"/>
      <point x="226" y="-6" type="curve" smooth="yes"/>
      <point x="350" y="-6"/>
      <point x="464" y="51"/>
      <point x="464" y="151" type="curve" smooth="yes"/>
      <point x="464" y="242"/>
      <point x="385" y="283"/>
      <point x="303" y="302" type="curve" smooth="yes"/>
      <point x="243" y="317"/>
      <point x="173" y="322"/>
      <point x="173" y="377" type="curve" smooth="yes"/>
      <point x="173" y="422"/>
      <point x="219" y="436"/>
    </contour>
  </outline>
</glyph>
<glyph name="t" format="1">
  <advance width="454"/>
  <unicode hex="0074"/>
  <outline>
    <contour>
      <point x="28" y="424" type="line"/>
      <point x="26" y="530" type="line"/>
      <point x="144" y="530" type="line"/>
      <point x="144" y="618" type="line"/>
      <point x="262" y="690" type="line"/>
      <point x="262" y="530" type="line"/>
      <point x="429" y="530" type="line"/>
      <point x="429" y="424" type="line"/>
      <point x="262" y="424" type="line"/>
      <point x="262" y="222" type="line" smooth="yes"/>
      <point x="262" y="157"/>
      <point x="267" y="95"/>
      <point x="323" y="95" type="curve" smooth="yes"/>
      <point x="346" y="95"/>
      <point x="368" y="101"/>
      <point x="387" y="112" type="curve"/>
      <point x="422" y="24" type="line"/>
      <point x="377" y="5"/>
      <point x="328" y="-6"/>
      <point x="279" y="-6" type="curve" smooth="yes"/>
      <point x="194" y="-6"/>
      <point x="144" y="62"/>
      <point x="144" y="151" type="curve" smooth="yes"/>
      <point x="144" y="424" type="line"/>
    </contour>
  </outline>
</glyph>
<glyph name="u" format="1">
  <advance width="604"/>
  <unicode hex="0075"/>
  <outline>
    <contour>
      <point x="188" y="187" type="curve" smooth="yes"/>
      <point x="189" y="518" type="line"/>
      <point x="78" y="518" type="line"/>
      <point x="79" y="152" type="line" smooth="yes"/>
      <point x="79" y="63"/>
      <point x="156" y="-9"/>
      <point x="258" y="-9" type="curve" smooth="yes"/>
      <point x="320" y="-9"/>
      <point x="378" y="18"/>
      <point x="427" y="62" type="curve"/>
      <point x="427" y="0" type="line"/>
      <point x="538" y="0" type="line"/>
      <point x="538" y="518" type="line"/>
      <point x="427" y="518" type="line"/>
      <point x="427" y="180" type="line"/>
      <point x="394" y="128"/>
      <point x="351" y="83"/>
      <point x="292" y="83" type="curve" smooth="yes"/>
      <point x="234" y="83"/>
      <point x="188" y="131"/>
    </contour>
  </outline>
</glyph>
<glyph name="v" format="1">
  <advance width="579"/>
  <unicode hex="0076"/>
  <outline>
    <contour>
      <point x="31" y="518" type="line"/>
      <point x="239" y="0" type="line"/>
      <point x="342" y="0" type="line"/>
      <point x="550" y="518" type="line"/>
      <point x="439" y="518" type="line"/>
      <point x="286" y="123" type="line"/>
      <point x="142" y="518" type="line"/>
    </contour>
  </outline>
</glyph>
<glyph name="w" format="1">
  <advance width="936"/>
  <unicode hex="0077"/>
  <outline>
    <contour>
      <point x="49" y="518" type="line"/>
      <point x="242" y="0" type="line"/>
      <point x="352" y="0" type="line"/>
      <point x="467" y="355" type="line"/>
      <point x="577" y="0" type="line"/>
      <point x="687" y="0" type="line"/>
      <point x="907" y="518" type="line"/>
      <point x="797" y="518" type="line"/>
      <point x="628" y="120" type="line"/>
      <point x="520" y="518" type="line"/>
      <point x="417" y="518" type="line"/>
      <point x="285" y="128" type="line"/>
      <point x="160" y="518" type="line"/>
    </contour>
  </outline>
</glyph>
<glyph name="x" format="1">
  <advance width="587"/>
  <unicode hex="0078"/>
  <outline>
    <contour>
      <point x="70" y="533" type="line"/>
      <point x="209" y="533" type="line"/>
      <point x="304" y="385" type="line"/>
      <point x="418" y="533" type="line"/>
      <point x="553" y="533" type="line"/>
      <point x="371" y="279" type="line"/>
      <point x="550" y="0" type="line"/>
      <point x="412" y="0" type="line"/>
      <point x="302" y="172" type="line"/>
      <point x="168" y="0" type="line"/>
      <point x="33" y="0" type="line"/>
      <point x="234" y="277" type="line"/>
    </contour>
  </outline>
</glyph>
<glyph name="y" format="1">
  <advance width="589"/>
  <unicode hex="0079"/>
  <outline>
    <contour>
      <point x="39" y="518" type="line"/>
      <point x="235" y="83" type="line"/>
      <point x="54" y="-294" type="line"/>
      <point x="172" y="-294" type="line"/>
      <point x="562" y="518" type="line"/>
      <point x="444" y="518" type="line"/>
      <point x="289" y="196" type="line"/>
      <point x="150" y="518" type="line"/>
    </contour>
  </outline>
</glyph>
<glyph name="z" format="1">
  <advance width="436"/>
  <unicode hex="007A"/>
  <outline>
    <contour>
      <point x="47" y="414" type="line"/>
      <point x="299" y="415" type="line"/>
      <point x="4" y="96" type="line"/>
      <point x="4" y="0" type="line"/>
      <point x="434" y="0" type="line"/>
      <point x="434" y="96" type="line"/>
      <point x="129" y="96" type="line"/>
      <point x="424" y="415" type="line"/>
      <point x="424" y="511" type="line"/>
      <point x="47" y="510" type="line"/>
    </contour>
  </outline>
</glyph>
<glyph name="bar" format="1">
  <advance width="101"/>
  <unicode hex="007C"/>
  <outline>
    <contour>
      <point x="-1" y="-402" type="line"/>
      <point x="109" y="-402" type="line"/>
      <point x="109" y="-369" type="line"/>
      <point x="-1" y="-369" type="line"/>
    </contour>
    <contour>
      <point x="-1" y="899" type="line"/>
      <point x="109" y="899" type="line"/>
      <point x="109" y="932" type="line"/>
      <point x="-1" y="932" type="line"/>
    </contour>
    <contour>
      <point x="-1" y="822" type="line"/>
      <point x="-1" y="786" type="line"/>
      <point x="109" y="786" type="line"/>
      <point x="109" y="822" type="line"/>
    </contour>
    <contour>
      <point x="-1" y="519" type="line"/>
      <point x="109" y="519" type="line"/>
      <point x="109" y="760" type="line"/>
      <point x="-1" y="760" type="line"/>
    </contour>
    <contour>
      <point x="-1" y="1" type="line"/>
      <point x="109" y="1" type="line"/>
      <point x="109" y="517" type="line"/>
      <point x="-1" y="517" type="line"/>
    </contour>
    <contour>
      <point x="-1" y="-294" type="line"/>
      <point x="109" y="-294" type="line"/>
      <point x="109" y="-1" type="line"/>
      <point x="-1" y="-1" type="line"/>
    </contour>
  </outline>
</glyph>
